<svg width="48" height="48" viewBox="0 0 48 48" fill="none" xmlns="http://www.w3.org/2000/svg">
<path fill-rule="evenodd" clip-rule="evenodd" d="M24 48C37.2548 48 48 37.2548 48 24C48 10.7452 37.2548 0 24 0C10.7452 0 0 10.7452 0 24C0 37.2548 10.7452 48 24 48ZM14.2868 37.3335C10.8303 37.329 7.43382 36.4296 4.42762 34.7227C4.29794 34.6504 4.18993 34.5447 4.11477 34.4165C4.03962 34.2884 4.00003 34.1425 4.00012 33.994C4.00003 33.8454 4.03962 33.6995 4.11477 33.5714C4.18993 33.4432 4.29794 33.3375 4.42762 33.2652C6.4062 32.1497 8.5557 31.3777 10.7848 30.9785C11.2366 30.8976 11.6917 30.832 12.1493 30.782C11.7814 30.5037 11.4233 30.2147 11.0754 29.9154C7.56013 26.8916 5.08057 22.8236 4.01095 18.2861C3.99002 18.1583 3.99917 18.0272 4.03767 17.9035C4.07617 17.7798 4.14296 17.6667 4.23274 17.5733C4.32252 17.4799 4.43282 17.4088 4.55489 17.3655C4.67696 17.3222 4.80743 17.3079 4.93595 17.3239C5.30066 17.3684 12.4592 18.3218 18.2376 23.4382C18.6252 23.7814 19.0066 24.1433 19.3793 24.5249C19.3045 24.0019 19.2431 23.4782 19.195 22.9543C18.6012 16.4896 20.0299 9.98495 23.3043 4.35023C23.3849 4.24157 23.4898 4.1533 23.6107 4.09249C23.7315 4.03167 23.8649 4 24.0001 4C24.1354 4 24.2687 4.03167 24.3896 4.09249C24.5104 4.1533 24.6153 4.24157 24.696 4.35023C27.9708 9.9852 29.4001 16.4902 28.8068 22.9554C28.7587 23.4793 28.6974 24.0029 28.6226 24.5257C28.9953 24.1442 29.3766 23.7824 29.7642 23.4393C35.5436 18.3225 42.7044 17.3684 43.0668 17.3239C43.1953 17.3079 43.3258 17.3222 43.4479 17.3655C43.5699 17.4088 43.6802 17.4799 43.77 17.5733C43.8598 17.6667 43.9266 17.7798 43.9651 17.9035C44.0036 18.0272 44.0127 18.1583 43.9918 18.2861C43.4577 20.7872 42.4476 23.162 41.0168 25.2812C40.8952 25.4662 40.7052 25.5953 40.4885 25.6401C40.2718 25.6849 40.0463 25.6417 39.8614 25.5201C39.6765 25.3985 39.5475 25.2083 39.5027 24.9915C39.4579 24.7747 39.5011 24.549 39.6226 24.364C40.3471 23.2643 40.8877 22.1338 41.363 20.9259C41.4364 20.742 41.5072 20.5569 41.5753 20.3705C41.6322 20.2173 41.7041 20.055 41.7769 19.8906C41.879 19.66 41.9829 19.4253 42.0501 19.2059C41.7228 19.2779 41.3386 19.37 40.9085 19.4859C37.6218 20.3713 31.651 22.6488 27.8501 28.052C27.413 29.5687 26.8576 31.0479 26.1892 32.4762C26.006 32.8676 25.8143 33.2552 25.6143 33.6387C26.0431 33.5457 26.4691 33.4414 26.8917 33.326C29.0066 32.7489 31.0382 31.8951 32.9335 30.7854C33.8513 30.2404 34.7189 29.6267 35.5302 28.952C36.3352 28.2848 37.0895 27.5562 37.786 26.7721C37.9337 26.6123 38.138 26.5167 38.3553 26.5056C38.5725 26.4945 38.7855 26.5688 38.9487 26.7128C39.1119 26.8567 39.2124 27.0588 39.2287 27.2758C39.245 27.4929 39.1758 27.7077 39.036 27.8744C38.3885 28.6019 37.6931 29.2844 36.9546 29.9175C36.6053 30.2169 36.2464 30.5052 35.8785 30.782C36.3361 30.8329 36.7913 30.8994 37.2432 30.9812C39.4633 31.3829 41.6039 32.1539 43.5751 33.2652C43.705 33.3374 43.8132 33.4431 43.8885 33.5712C43.9638 33.6994 44.0035 33.8453 44.0035 33.994C44.0035 34.1426 43.9638 34.2886 43.8885 34.4167C43.8132 34.5448 43.705 34.6505 43.5751 34.7227C40.5682 36.4312 37.1705 37.3318 33.7126 37.3368C33.2819 37.3357 32.8515 37.321 32.4219 37.2928C31.9796 37.2637 31.5382 37.2203 31.0985 37.1625C31.3774 37.498 31.6168 37.8625 31.8132 38.2486C32.0383 38.6914 32.2069 39.1627 32.3135 39.6515C32.3402 39.7733 32.3394 39.8995 32.311 40.0209C32.2826 40.1423 32.2273 40.2558 32.1493 40.353C32.0713 40.4502 31.9724 40.5287 31.8601 40.5826C31.7477 40.6365 31.6247 40.6646 31.5001 40.6647C31.4723 40.665 31.4445 40.6636 31.4168 40.6605C28.8296 40.4064 27.0545 39.6633 25.8335 38.7931C25.4475 38.5181 25.1169 38.2303 24.8335 37.9413V43.1662C24.8335 43.3873 24.7457 43.5994 24.5894 43.7558C24.4331 43.9122 24.2211 44 24.0001 44C23.7791 44 23.5671 43.9122 23.4109 43.7558C23.2546 43.5994 23.1668 43.3873 23.1668 43.1662V37.9413C22.8837 38.2306 22.553 38.5187 22.1668 38.7941C20.9466 39.6641 19.171 40.4071 16.5835 40.6605C16.5558 40.6636 16.528 40.665 16.5001 40.6647C16.3754 40.6647 16.2523 40.6368 16.1399 40.5829C16.0274 40.529 15.9285 40.4506 15.8504 40.3533C15.7723 40.2561 15.7169 40.1426 15.6885 40.0211C15.66 39.8997 15.6591 39.7734 15.686 39.6515C15.7926 39.1616 15.9614 38.6893 16.1869 38.2455C16.3832 37.8593 16.6223 37.4948 16.901 37.1592C16.4614 37.2172 16.0201 37.2607 15.5779 37.2898C15.1482 37.318 14.7176 37.3326 14.2868 37.3335ZM7.97612 34.5267C7.53814 34.366 7.10499 34.1884 6.67762 33.994C7.10357 33.7976 7.53622 33.6183 7.97455 33.4562C10.0436 32.6911 12.239 32.3098 14.4526 32.3355C15.7111 33.0673 17.0287 33.6902 18.3907 34.1979C18.9489 34.4059 19.5146 34.5947 20.0868 34.7636C19.5048 34.9516 18.9164 35.1099 18.3236 35.2388C14.88 35.9877 11.2901 35.7422 7.97612 34.5267ZM29.6801 35.2396C29.0867 35.1105 28.4976 34.9519 27.9151 34.7636C28.488 34.5949 29.0545 34.4065 29.6135 34.1988C30.9797 33.691 32.3015 33.0679 33.5643 32.3355C35.7727 32.3133 37.9625 32.6947 40.0272 33.4569C40.4658 33.6188 40.8988 33.7979 41.3251 33.994C40.8976 34.1886 40.4642 34.3664 40.026 34.5272C36.7126 35.7431 33.1231 35.9887 29.6801 35.2396ZM23.9964 35.6592L24.0002 35.6531L24.0026 35.6571L23.9985 35.6613L23.9964 35.6592ZM27.0855 36.395C27.7335 36.6474 28.3952 36.984 28.9768 37.4314C29.4634 37.8056 29.8939 38.2575 30.2135 38.8027C29.5605 38.6736 28.9859 38.5067 28.4805 38.3143C27.6923 38.0144 27.0721 37.6524 26.5846 37.2749C25.971 36.7998 25.5676 36.3003 25.3043 35.8693C25.8255 35.9803 26.4489 36.1471 27.0855 36.395ZM20.9131 36.3965C21.5498 36.1482 22.1734 35.9811 22.6951 35.8701C22.4311 36.3017 22.0275 36.8014 21.4141 37.2763C20.9271 37.6534 20.3077 38.0149 19.521 38.3143C19.0152 38.5069 18.4403 38.6738 17.7868 38.8027C18.1067 38.2576 18.5377 37.8057 19.0248 37.4313C19.6056 36.9849 20.2661 36.6488 20.9131 36.3965ZM23.4494 7.63403C23.6481 7.20056 23.8351 6.82128 24.001 6.50069C24.1673 6.82103 24.3549 7.20004 24.5542 7.63326C26.5216 11.9107 29.6222 21.4732 24.5579 32.0259C24.3822 32.392 24.1967 32.7593 24.001 33.1276C23.8052 32.7593 23.6198 32.392 23.4441 32.0258C18.3901 21.4896 21.4867 11.9166 23.4494 7.63403ZM5.94096 19.2042C6.2668 19.2757 6.64962 19.3671 7.07854 19.4823C10.3617 20.3641 16.3458 22.6403 20.1526 28.052C20.5909 29.5716 21.1477 31.0536 21.8176 32.4846C22.0021 32.8789 22.1952 33.2692 22.3968 33.6554C21.957 33.5596 21.529 33.4482 21.1098 33.3238C19.303 32.7877 17.6614 32.0113 15.959 31.2061C15.6267 31.0489 15.2921 30.8906 14.9535 30.7328C10.9494 28.3554 7.90238 24.6709 6.31161 20.3179C6.17763 19.9513 6.05398 19.5799 5.94096 19.2042Z" fill="#1c1c24"/>
<path fill-rule="evenodd" clip-rule="evenodd" d="M24 48C37.2548 48 48 37.2548 48 24C48 10.7452 37.2548 0 24 0C10.7452 0 0 10.7452 0 24C0 37.2548 10.7452 48 24 48ZM14.2868 37.3335C10.8303 37.329 7.43382 36.4296 4.42762 34.7227C4.29794 34.6504 4.18993 34.5447 4.11477 34.4165C4.03962 34.2884 4.00003 34.1425 4.00012 33.994C4.00003 33.8454 4.03962 33.6995 4.11477 33.5714C4.18993 33.4432 4.29794 33.3375 4.42762 33.2652C6.4062 32.1497 8.5557 31.3777 10.7848 30.9785C11.2366 30.8976 11.6917 30.832 12.1493 30.782C11.7814 30.5037 11.4233 30.2147 11.0754 29.9154C7.56013 26.8916 5.08057 22.8236 4.01095 18.2861C3.99002 18.1583 3.99917 18.0272 4.03767 17.9035C4.07617 17.7798 4.14296 17.6667 4.23274 17.5733C4.32252 17.4799 4.43282 17.4088 4.55489 17.3655C4.67696 17.3222 4.80743 17.3079 4.93595 17.3239C5.30066 17.3684 12.4592 18.3218 18.2376 23.4382C18.6252 23.7814 19.0066 24.1433 19.3793 24.5249C19.3045 24.0019 19.2431 23.4782 19.195 22.9543C18.6012 16.4896 20.0299 9.98495 23.3043 4.35023C23.3849 4.24157 23.4898 4.1533 23.6107 4.09249C23.7315 4.03167 23.8649 4 24.0001 4C24.1354 4 24.2687 4.03167 24.3896 4.09249C24.5104 4.1533 24.6153 4.24157 24.696 4.35023C27.9708 9.9852 29.4001 16.4902 28.8068 22.9554C28.7587 23.4793 28.6974 24.0029 28.6226 24.5257C28.9953 24.1442 29.3766 23.7824 29.7642 23.4393C35.5436 18.3225 42.7044 17.3684 43.0668 17.3239C43.1953 17.3079 43.3258 17.3222 43.4479 17.3655C43.5699 17.4088 43.6802 17.4799 43.77 17.5733C43.8598 17.6667 43.9266 17.7798 43.9651 17.9035C44.0036 18.0272 44.0127 18.1583 43.9918 18.2861C43.4577 20.7872 42.4476 23.162 41.0168 25.2812C40.8952 25.4662 40.7052 25.5953 40.4885 25.6401C40.2718 25.6849 40.0463 25.6417 39.8614 25.5201C39.6765 25.3985 39.5475 25.2083 39.5027 24.9915C39.4579 24.7747 39.5011 24.549 39.6226 24.364C40.3471 23.2643 40.8877 22.1338 41.363 20.9259C41.4364 20.742 41.5072 20.5569 41.5753 20.3705C41.6322 20.2173 41.7041 20.055 41.7769 19.8906C41.879 19.66 41.9829 19.4253 42.0501 19.2059C41.7228 19.2779 41.3386 19.37 40.9085 19.4859C37.6218 20.3713 31.651 22.6488 27.8501 28.052C27.413 29.5687 26.8576 31.0479 26.1892 32.4762C26.006 32.8676 25.8143 33.2552 25.6143 33.6387C26.0431 33.5457 26.4691 33.4414 26.8917 33.326C29.0066 32.7489 31.0382 31.8951 32.9335 30.7854C33.8513 30.2404 34.7189 29.6267 35.5302 28.952C36.3352 28.2848 37.0895 27.5562 37.786 26.7721C37.9337 26.6123 38.138 26.5167 38.3553 26.5056C38.5725 26.4945 38.7855 26.5688 38.9487 26.7128C39.1119 26.8567 39.2124 27.0588 39.2287 27.2758C39.245 27.4929 39.1758 27.7077 39.036 27.8744C38.3885 28.6019 37.6931 29.2844 36.9546 29.9175C36.6053 30.2169 36.2464 30.5052 35.8785 30.782C36.3361 30.8329 36.7913 30.8994 37.2432 30.9812C39.4633 31.3829 41.6039 32.1539 43.5751 33.2652C43.705 33.3374 43.8132 33.4431 43.8885 33.5712C43.9638 33.6994 44.0035 33.8453 44.0035 33.994C44.0035 34.1426 43.9638 34.2886 43.8885 34.4167C43.8132 34.5448 43.705 34.6505 43.5751 34.7227C40.5682 36.4312 37.1705 37.3318 33.7126 37.3368C33.2819 37.3357 32.8515 37.321 32.4219 37.2928C31.9796 37.2637 31.5382 37.2203 31.0985 37.1625C31.3774 37.498 31.6168 37.8625 31.8132 38.2486C32.0383 38.6914 32.2069 39.1627 32.3135 39.6515C32.3402 39.7733 32.3394 39.8995 32.311 40.0209C32.2826 40.1423 32.2273 40.2558 32.1493 40.353C32.0713 40.4502 31.9724 40.5287 31.8601 40.5826C31.7477 40.6365 31.6247 40.6646 31.5001 40.6647C31.4723 40.665 31.4445 40.6636 31.4168 40.6605C28.8296 40.4064 27.0545 39.6633 25.8335 38.7931C25.4475 38.5181 25.1169 38.2303 24.8335 37.9413V43.1662C24.8335 43.3873 24.7457 43.5994 24.5894 43.7558C24.4331 43.9122 24.2211 44 24.0001 44C23.7791 44 23.5671 43.9122 23.4109 43.7558C23.2546 43.5994 23.1668 43.3873 23.1668 43.1662V37.9413C22.8837 38.2306 22.553 38.5187 22.1668 38.7941C20.9466 39.6641 19.171 40.4071 16.5835 40.6605C16.5558 40.6636 16.528 40.665 16.5001 40.6647C16.3754 40.6647 16.2523 40.6368 16.1399 40.5829C16.0274 40.529 15.9285 40.4506 15.8504 40.3533C15.7723 40.2561 15.7169 40.1426 15.6885 40.0211C15.66 39.8997 15.6591 39.7734 15.686 39.6515C15.7926 39.1616 15.9614 38.6893 16.1869 38.2455C16.3832 37.8593 16.6223 37.4948 16.901 37.1592C16.4614 37.2172 16.0201 37.2607 15.5779 37.2898C15.1482 37.318 14.7176 37.3326 14.2868 37.3335ZM7.97612 34.5267C7.53814 34.366 7.10499 34.1884 6.67762 33.994C7.10357 33.7976 7.53622 33.6183 7.97455 33.4562C10.0436 32.6911 12.239 32.3098 14.4526 32.3355C15.7111 33.0673 17.0287 33.6902 18.3907 34.1979C18.9489 34.4059 19.5146 34.5947 20.0868 34.7636C19.5048 34.9516 18.9164 35.1099 18.3236 35.2388C14.88 35.9877 11.2901 35.7422 7.97612 34.5267ZM29.6801 35.2396C29.0867 35.1105 28.4976 34.9519 27.9151 34.7636C28.488 34.5949 29.0545 34.4065 29.6135 34.1988C30.9797 33.691 32.3015 33.0679 33.5643 32.3355C35.7727 32.3133 37.9625 32.6947 40.0272 33.4569C40.4658 33.6188 40.8988 33.7979 41.3251 33.994C40.8976 34.1886 40.4642 34.3664 40.026 34.5272C36.7126 35.7431 33.1231 35.9887 29.6801 35.2396ZM23.9964 35.6592L24.0002 35.6531L24.0026 35.6571L23.9985 35.6613L23.9964 35.6592ZM27.0855 36.395C27.7335 36.6474 28.3952 36.984 28.9768 37.4314C29.4634 37.8056 29.8939 38.2575 30.2135 38.8027C29.5605 38.6736 28.9859 38.5067 28.4805 38.3143C27.6923 38.0144 27.0721 37.6524 26.5846 37.2749C25.971 36.7998 25.5676 36.3003 25.3043 35.8693C25.8255 35.9803 26.4489 36.1471 27.0855 36.395ZM20.9131 36.3965C21.5498 36.1482 22.1734 35.9811 22.6951 35.8701C22.4311 36.3017 22.0275 36.8014 21.4141 37.2763C20.9271 37.6534 20.3077 38.0149 19.521 38.3143C19.0152 38.5069 18.4403 38.6738 17.7868 38.8027C18.1067 38.2576 18.5377 37.8057 19.0248 37.4313C19.6056 36.9849 20.2661 36.6488 20.9131 36.3965ZM23.4494 7.63403C23.6481 7.20056 23.8351 6.82128 24.001 6.50069C24.1673 6.82103 24.3549 7.20004 24.5542 7.63326C26.5216 11.9107 29.6222 21.4732 24.5579 32.0259C24.3822 32.392 24.1967 32.7593 24.001 33.1276C23.8052 32.7593 23.6198 32.392 23.4441 32.0258C18.3901 21.4896 21.4867 11.9166 23.4494 7.63403ZM5.94096 19.2042C6.2668 19.2757 6.64962 19.3671 7.07854 19.4823C10.3617 20.3641 16.3458 22.6403 20.1526 28.052C20.5909 29.5716 21.1477 31.0536 21.8176 32.4846C22.0021 32.8789 22.1952 33.2692 22.3968 33.6554C21.957 33.5596 21.529 33.4482 21.1098 33.3238C19.303 32.7877 17.6614 32.0113 15.959 31.2061C15.6267 31.0489 15.2921 30.8906 14.9535 30.7328C10.9494 28.3554 7.90238 24.6709 6.31161 20.3179C6.17763 19.9513 6.05398 19.5799 5.94096 19.2042Z" fill="#1c1c24"/>
<path d="M0 24C0 10.7452 10.7452 0 24 0H0V24Z" fill="#1c1c24"/>
<path d="M24 48C10.7452 48 0 37.2548 0 24V48H24Z" fill="#1c1c24"/>
<path d="M48 24C48 37.2548 37.2548 48 24 48H48V24Z" fill="#1c1c24"/>
<path d="M24 0C37.2548 0 48 10.7452 48 24V0H24Z" fill="#1c1c24"/>
</svg>
