<svg width="49" height="48" viewBox="0 0 49 48" fill="none" xmlns="http://www.w3.org/2000/svg">
<path fill-rule="evenodd" clip-rule="evenodd" d="M0.00999896 36C0.00989243 36.1782 0.0573917 36.3531 0.147583 36.5068C0.237774 36.6605 0.367382 36.7872 0.522999 36.874C4.13044 38.921 8.20623 39.9997 12.354 40.005C13.4031 40.0028 14.4509 39.933 15.491 39.796C14.7724 40.6611 14.2724 41.6862 14.033 42.785C14.0008 42.9311 14.0019 43.0826 14.036 43.2282C14.0702 43.3739 14.1366 43.5101 14.2303 43.6266C14.3241 43.7432 14.4428 43.8373 14.5777 43.9019C14.7127 43.9665 14.8604 44.0001 15.01 44C15.0434 44.0005 15.0768 43.9988 15.11 43.995C19.198 43.595 21.597 42.177 23.01 40.734V47C23.01 47.2652 23.1154 47.5196 23.3029 47.7071C23.4904 47.8946 23.7448 48 24.01 48C24.2752 48 24.5296 47.8946 24.7171 47.7071C24.9046 47.5196 25.01 47.2652 25.01 47V40.734C26.426 42.177 28.824 43.594 32.91 43.995C32.9432 43.9987 32.9766 44.0004 33.01 44C33.1595 43.9999 33.3071 43.9663 33.4419 43.9016C33.5768 43.8369 33.6954 43.7428 33.789 43.6263C33.8826 43.5097 33.949 43.3736 33.983 43.228C34.0171 43.0824 34.0181 42.931 33.986 42.785C33.7466 41.6874 33.2465 40.6636 32.528 39.8C33.5681 39.9365 34.6159 40.0063 35.665 40.009C39.8145 40.003 43.8917 38.923 47.5 36.874C47.6558 36.7874 47.7856 36.6607 47.876 36.507C47.9664 36.3533 48.0141 36.1783 48.0141 36C48.0141 35.8217 47.9664 35.6467 47.876 35.493C47.7856 35.3393 47.6558 35.2126 47.5 35.126C44.6531 33.522 41.5117 32.5091 38.264 32.148C40.7462 30.2819 42.5635 27.9931 44.43 25.551C46.147 23.0095 47.359 20.1614 48 17.162C48.0251 17.0086 48.0141 16.8515 47.9679 16.7031C47.9217 16.5547 47.8416 16.4192 47.7339 16.3072C47.6261 16.1951 47.4938 16.1098 47.3473 16.0579C47.2008 16.0059 47.0442 15.9889 46.89 16.008C46.426 16.065 36.673 17.364 29.557 24.645C30.7534 16.2792 29.0932 7.75447 24.845 0.448997C24.7482 0.318687 24.6223 0.21283 24.4773 0.139897C24.3324 0.0669628 24.1723 0.0289764 24.01 0.0289764C23.8477 0.0289764 23.6876 0.0669628 23.5427 0.139897C23.3977 0.21283 23.2718 0.318687 23.175 0.448997C18.9273 7.75429 17.2679 16.2788 18.465 24.644C11.35 17.363 1.6 16.065 1.133 16.008C0.978769 15.9889 0.822201 16.0059 0.67572 16.0579C0.529239 16.1098 0.396878 16.1951 0.28914 16.3072C0.181403 16.4192 0.101255 16.5547 0.0550568 16.7031C0.00885876 16.8515 -0.00211755 17.0086 0.022999 17.162C1.43358 23.1423 4.88763 28.4426 9.789 32.148C6.53075 32.5039 3.37854 33.517 0.522999 35.126C0.367382 35.2128 0.237774 35.3395 0.147583 35.4932C0.0573917 35.6469 0.00989243 35.8218 0.00999896 36ZM16.554 41.767C17.846 39.567 20.648 38.632 22.444 38.25C21.714 39.443 20.094 41.069 16.554 41.767ZM44.8 36C41.8804 34.658 38.7001 33.9788 35.487 34.011C33.3516 35.2487 31.0758 36.2264 28.708 36.923C33.9995 38.6324 39.7387 38.3033 44.8 36ZM31.466 41.767C27.923 41.067 26.303 39.44 25.575 38.249C27.37 38.631 30.174 39.564 31.466 41.767ZM24.011 3.028C26.25 7.337 31.702 20.498 24.011 34.961C16.334 20.523 21.778 7.343 24.011 3.028ZM19.393 28.874C14.228 21.536 5.723 19.005 2.339 18.263C4.08493 24.0636 7.94445 28.9977 13.154 32.089C13.1979 32.1095 13.2401 32.1335 13.28 32.161C16.0168 33.7608 18.9886 34.9193 22.086 35.594C20.966 33.4496 20.0639 31.1984 19.393 28.874ZM19.314 36.923C16.952 36.226 14.6822 35.2484 12.553 34.011C9.33396 33.9737 6.14696 34.6531 3.223 36C8.28432 38.3018 14.0227 38.6309 19.314 36.923ZM25.947 35.574C29.0369 34.9038 32.0012 33.7489 34.73 32.152C38.0647 30.1658 40.4428 27.4833 42.757 24.451C44.0178 22.5383 44.9987 20.4553 45.67 18.265C42.276 19.012 33.788 21.546 28.63 28.874C27.9617 31.1913 27.0629 33.4359 25.947 35.574Z" fill="#D9D9D9"/>
</svg>
