<svg width="48" height="48" viewBox="0 0 48 48" fill="none" xmlns="http://www.w3.org/2000/svg">
<path fill-rule="evenodd" clip-rule="evenodd" d="M1 47H23.9981H46.996V35.5808C46.9987 35.5517 47 35.5225 47 35.4931C47 35.4637 46.9987 35.4344 46.996 35.4053V17.3512C47.0001 17.2999 47.0001 17.2484 46.996 17.1973V1H23.9981H1L1 17.2741L1 47ZM23.9981 1C24.1536 1 24.307 1.03643 24.4459 1.10637C24.5848 1.1763 24.7055 1.27781 24.7982 1.40276C28.8691 8.40811 30.4599 16.5825 29.3135 24.6046C36.1324 17.6228 45.4782 16.3771 45.9228 16.3225C46.0706 16.3042 46.2207 16.3205 46.361 16.3703C46.5014 16.4201 46.6282 16.5019 46.7315 16.6094C46.8347 16.7168 46.9115 16.8467 46.9557 16.989C46.9769 17.057 46.9903 17.1268 46.996 17.1973V17.3512C46.9939 17.3772 46.9907 17.4032 46.9865 17.4291C46.3723 20.3052 45.2109 23.0363 43.5655 25.4733C41.777 27.8151 40.0355 30.0099 37.657 31.7993C40.7691 32.1455 43.7793 33.1169 46.5074 34.6549C46.6567 34.738 46.781 34.8595 46.8677 35.0068C46.9394 35.1289 46.9831 35.265 46.996 35.4053V35.5808C46.9831 35.7211 46.9394 35.8572 46.8677 35.9793C46.781 36.1267 46.6567 36.2481 46.5074 36.3312C43.0497 38.2959 39.1427 39.3316 35.1665 39.3374C34.1612 39.3348 33.1571 39.2678 32.1605 39.1369C32.849 39.9651 33.3282 40.9468 33.5576 41.9992C33.5883 42.1392 33.5874 42.2844 33.5547 42.4241C33.5221 42.5637 33.4585 42.6942 33.3688 42.806C33.2791 42.9177 33.1655 43.008 33.0362 43.07C32.907 43.1321 32.7656 43.1643 32.6223 43.1644C32.5903 43.1648 32.5583 43.1631 32.5265 43.1596C28.6111 42.775 26.3132 41.4163 24.9563 40.0325V46.0411C24.9563 46.2954 24.8553 46.5393 24.6757 46.7191C24.496 46.8989 24.2522 47 23.9981 47C23.744 47 23.5002 46.8989 23.3205 46.7191C23.1408 46.5393 23.0398 46.2954 23.0398 46.0411V40.0325C21.6858 41.4163 19.387 42.776 15.4697 43.1596C15.4378 43.1632 15.4058 43.1648 15.3738 43.1644C15.2305 43.1645 15.0889 43.1323 14.9596 43.0703C14.8303 43.0083 14.7166 42.9181 14.6267 42.8063C14.5369 42.6946 14.4733 42.564 14.4405 42.4242C14.4078 42.2846 14.4068 42.1393 14.4376 41.9992C14.667 40.9456 15.1462 39.9627 15.8348 39.133C14.8381 39.2644 13.834 39.3314 12.8287 39.3335C8.85419 39.3284 4.94855 38.294 1.49172 36.3312C1.3426 36.2479 1.2184 36.1265 1.13198 35.9791C1.04555 35.8317 1.00004 35.664 1.00014 35.4931C1.00004 35.3221 1.04555 35.1544 1.13198 35.007C1.2184 34.8597 1.3426 34.7382 1.49172 34.6549C4.22804 33.112 7.24865 32.1406 10.3708 31.7993C5.67413 28.2462 2.36429 23.1637 1.0126 17.4291C1.00419 17.3777 1 17.3259 1 17.2741C1 17.1777 1.01452 17.0816 1.04331 16.989C1.08758 16.8467 1.16439 16.7168 1.26763 16.6094C1.37086 16.5019 1.4977 16.4201 1.63807 16.3703C1.77843 16.3205 1.92846 16.3042 2.07626 16.3225C2.52376 16.3771 11.8666 17.6218 18.6846 24.6037C17.5375 16.5821 19.1276 8.40792 23.1979 1.40276C23.2907 1.27781 23.4113 1.1763 23.5503 1.10637C23.6891 1.03643 23.8426 1 23.9981 1Z" fill="#D9D9D9"/>
<path d="M3.99022 35.6696C3.9146 35.5437 3.87478 35.4005 3.87487 35.2545C3.87478 35.1085 3.9146 34.9652 3.99022 34.8393C4.06583 34.7135 4.1745 34.6097 4.30497 34.5386C6.69904 33.2207 9.34183 32.3909 12.0735 32.0994C7.96425 29.0645 5.06839 24.7231 3.88577 19.8248C3.86471 19.6992 3.87391 19.5705 3.91264 19.449C3.95137 19.3274 4.01857 19.2164 4.1089 19.1247C4.19922 19.0329 4.3102 18.963 4.43301 18.9205C4.55581 18.8779 4.68708 18.864 4.81639 18.8796C5.20792 18.9263 13.3822 19.9895 19.3474 25.9531C18.3438 19.1014 19.735 12.1193 23.2963 6.13569C23.3774 6.02896 23.483 5.94225 23.6045 5.88252C23.726 5.82278 23.8602 5.79167 23.9963 5.79167C24.1324 5.79167 24.2666 5.82278 24.3881 5.88252C24.5097 5.94225 24.6152 6.02896 24.6964 6.13569C28.258 12.1194 29.6499 19.1017 28.6469 25.9539C34.6129 19.9903 42.7898 18.9263 43.1788 18.8796C43.3081 18.864 43.4394 18.8779 43.5622 18.9205C43.685 18.963 43.7959 19.0329 43.8863 19.1247C43.9766 19.2164 44.0438 19.3274 44.0825 19.449C44.1212 19.5705 44.1304 19.6992 44.1094 19.8248C43.572 22.2816 42.5559 24.6143 41.1163 26.696C39.5515 28.6963 38.0279 30.571 35.9468 32.0994C38.6696 32.3952 41.3034 33.2249 43.6902 34.5386C43.8208 34.6096 43.9297 34.7134 44.0054 34.8392C44.0812 34.9651 44.1212 35.1084 44.1212 35.2545C44.1212 35.4006 44.0812 35.5439 44.0054 35.6698C43.9297 35.7957 43.8208 35.8994 43.6902 35.9704C40.665 37.6486 37.2467 38.5332 33.7678 38.5382C32.8882 38.5359 32.0098 38.4787 31.1378 38.3669C31.7401 39.0743 32.1594 39.9129 32.3601 40.8118C32.3871 40.9314 32.3862 41.0554 32.3576 41.1747C32.3291 41.294 32.2734 41.4055 32.195 41.501C32.1165 41.5964 32.0171 41.6735 31.904 41.7264C31.7909 41.7795 31.6672 41.807 31.5419 41.8071C31.5139 41.8074 31.4859 41.806 31.458 41.803C28.0323 41.4745 25.6643 39.7201 24.4771 38.5382C24.4774 39.7237 24.4771 46.2809 24.4771 46.2809C24.3199 46.4345 24.2203 46.5208 23.998 46.5208C23.7756 46.5208 23.6761 46.4345 23.5189 46.2809C23.5189 46.2809 23.5192 39.7241 23.5189 38.5382C22.3342 39.7201 19.962 41.4753 16.5346 41.803C16.5068 41.8061 16.4788 41.8075 16.4508 41.8071C16.3253 41.8071 16.2015 41.7796 16.0883 41.7267C15.9752 41.6738 15.8757 41.5967 15.7971 41.5012C15.7185 41.4058 15.6628 41.2942 15.6342 41.1749C15.6056 41.0556 15.6046 40.9315 15.6316 40.8118C15.8324 39.9119 16.2516 39.0723 16.854 38.3636C15.982 38.4759 15.1035 38.5331 14.224 38.5349C10.7466 38.5305 7.32943 37.647 4.30497 35.9704C4.1745 35.8992 4.06583 35.7955 3.99022 35.6696Z" fill="#D9D9D9"/>
<path d="M3.99022 35.6696C3.9146 35.5437 3.87478 35.4005 3.87487 35.2545C3.87478 35.1085 3.9146 34.9652 3.99022 34.8393C4.06583 34.7135 4.1745 34.6097 4.30497 34.5386C6.69904 33.2207 9.34183 32.3909 12.0735 32.0994C7.96425 29.0645 5.06839 24.7231 3.88577 19.8248C3.86471 19.6992 3.87391 19.5705 3.91264 19.449C3.95137 19.3274 4.01857 19.2164 4.1089 19.1247C4.19922 19.0329 4.3102 18.963 4.43301 18.9205C4.55581 18.8779 4.68708 18.864 4.81639 18.8796C5.20792 18.9263 13.3822 19.9895 19.3474 25.9531C18.3438 19.1014 19.735 12.1193 23.2963 6.13569C23.3774 6.02896 23.483 5.94225 23.6045 5.88252C23.726 5.82278 23.8602 5.79167 23.9963 5.79167C24.1324 5.79167 24.2666 5.82278 24.3881 5.88252C24.5097 5.94225 24.6152 6.02896 24.6964 6.13569C28.258 12.1194 29.6499 19.1017 28.6469 25.9539C34.6129 19.9903 42.7898 18.9263 43.1788 18.8796C43.3081 18.864 43.4394 18.8779 43.5622 18.9205C43.685 18.963 43.7959 19.0329 43.8863 19.1247C43.9766 19.2164 44.0438 19.3274 44.0825 19.449C44.1212 19.5705 44.1304 19.6992 44.1094 19.8248C43.572 22.2816 42.5559 24.6143 41.1163 26.696C39.5515 28.6963 38.0279 30.571 35.9468 32.0994C38.6696 32.3952 41.3034 33.2249 43.6902 34.5386C43.8208 34.6096 43.9297 34.7134 44.0054 34.8392C44.0812 34.9651 44.1212 35.1084 44.1212 35.2545C44.1212 35.4006 44.0812 35.5439 44.0054 35.6698C43.9297 35.7957 43.8208 35.8994 43.6902 35.9704C40.665 37.6486 37.2467 38.5332 33.7678 38.5382C32.8882 38.5359 32.0098 38.4787 31.1378 38.3669C31.7401 39.0743 32.1594 39.9129 32.3601 40.8118C32.3871 40.9314 32.3862 41.0554 32.3576 41.1747C32.3291 41.294 32.2734 41.4055 32.195 41.501C32.1165 41.5964 32.0171 41.6735 31.904 41.7264C31.7909 41.7795 31.6672 41.807 31.5419 41.8071C31.5139 41.8074 31.4859 41.806 31.458 41.803C28.0323 41.4745 25.6643 39.7201 24.4771 38.5382C24.4774 39.7237 24.4771 46.2809 24.4771 46.2809C24.3199 46.4345 24.2203 46.5208 23.998 46.5208C23.7756 46.5208 23.6761 46.4345 23.5189 46.2809C23.5189 46.2809 23.5192 39.7241 23.5189 38.5382C22.3342 39.7201 19.962 41.4753 16.5346 41.803C16.5068 41.8061 16.4788 41.8075 16.4508 41.8071C16.3253 41.8071 16.2015 41.7796 16.0883 41.7267C15.9752 41.6738 15.8757 41.5967 15.7971 41.5012C15.7185 41.4058 15.6628 41.2942 15.6342 41.1749C15.6056 41.0556 15.6046 40.9315 15.6316 40.8118C15.8324 39.9119 16.2516 39.0723 16.854 38.3636C15.982 38.4759 15.1035 38.5331 14.224 38.5349C10.7466 38.5305 7.32943 37.647 4.30497 35.9704C4.1745 35.8992 4.06583 35.7955 3.99022 35.6696Z" fill="white"/>
</svg>
