<svg width="57" height="57" viewBox="0 0 57 57" fill="none" xmlns="http://www.w3.org/2000/svg">
<rect width="57" height="57" fill="transtapent"/>
<path fill-rule="evenodd" clip-rule="evenodd" d="M28.5 57C44.2401 57 57 44.2401 57 28.5C57 12.7599 44.2401 0 28.5 0C12.7599 0 0 12.7599 0 28.5C0 44.2401 12.7599 57 28.5 57ZM4.13773 40.4999C4.04754 40.3461 4.00004 40.1711 4.00015 39.9928C4.00004 39.8144 4.04754 39.6394 4.13773 39.4856C4.22792 39.3319 4.35753 39.2051 4.51315 39.1182C7.36869 37.5082 10.5209 36.4945 13.7791 36.1384C8.87778 32.4308 5.42373 27.1273 4.01315 21.1434C3.98803 20.9899 3.99901 20.8327 4.0452 20.6842C4.0914 20.5357 4.17155 20.4001 4.27929 20.2881C4.38702 20.1759 4.51939 20.0905 4.66587 20.0386C4.81235 19.9866 4.96892 19.9696 5.12315 19.9887C5.59015 20.0457 15.3401 21.3445 22.4551 28.6299C21.258 20.2596 22.9174 11.73 27.1651 4.42027C27.2619 4.28989 27.3878 4.18396 27.5328 4.11099C27.6777 4.03801 27.8378 4 28.0001 4C28.1624 4 28.3225 4.03801 28.4674 4.11099C28.6124 4.18396 28.7383 4.28989 28.8351 4.42027C33.0833 11.7302 34.7435 20.26 33.5471 28.6309C40.6631 21.3455 50.4161 20.0457 50.8801 19.9887C51.0343 19.9696 51.1909 19.9866 51.3374 20.0386C51.4839 20.0905 51.6162 20.1759 51.724 20.2881C51.8317 20.4001 51.9118 20.5357 51.958 20.6842C52.0042 20.8327 52.0152 20.9899 51.9901 21.1434C51.3491 24.1446 50.1371 26.9944 48.4201 29.5374C46.5536 31.981 44.7363 34.2712 42.2541 36.1384C45.5018 36.4997 48.6432 37.5133 51.4901 39.1182C51.6459 39.2049 51.7757 39.3317 51.8661 39.4854C51.9565 39.6392 52.0042 39.8143 52.0042 39.9928C52.0042 40.1712 51.9565 40.3463 51.8661 40.5001C51.7757 40.6539 51.6459 40.7806 51.4901 40.8673C47.8818 42.9175 43.8046 43.9982 39.6551 44.0042C38.606 44.0015 37.5582 43.9316 36.5181 43.795C37.2366 44.6592 37.7367 45.6836 37.9761 46.7818C38.0082 46.9279 38.0072 47.0794 37.9731 47.2251C37.9391 47.3708 37.8727 47.507 37.7791 47.6237C37.6855 47.7402 37.5669 47.8344 37.432 47.8991C37.2972 47.9639 37.1496 47.9975 37.0001 47.9976C36.9667 47.998 36.9333 47.9963 36.9001 47.9926C32.8141 47.5913 30.4161 46.1735 29.0001 44.7296V50.9994C29.0001 51.2648 28.8947 51.5193 28.7072 51.7069C28.5197 51.8945 28.2653 52 28.0001 52C27.7349 52 27.4805 51.8945 27.293 51.7069C27.1055 51.5193 27.0001 51.2648 27.0001 50.9994V44.7296C25.5871 46.1735 23.1881 47.5923 19.1001 47.9926C19.0669 47.9964 19.0335 47.9981 19.0001 47.9976C18.8505 47.9977 18.7028 47.9641 18.5678 47.8994C18.4329 47.8348 18.3142 47.7406 18.2204 47.624C18.1267 47.5074 18.0603 47.3711 18.0261 47.2253C17.992 47.0796 17.9909 46.928 18.0231 46.7818C18.2625 45.6824 18.7625 44.6567 19.4811 43.791C18.441 43.9281 17.3932 43.998 16.3441 44.0002C12.1964 43.9949 8.12059 42.9155 4.51315 40.8673C4.35753 40.7804 4.22792 40.6537 4.13773 40.4999ZM20.5441 45.7632C21.8361 43.5619 24.6381 42.6263 26.4341 42.2441C25.7041 43.4378 24.0841 45.0648 20.5441 45.7632ZM39.4771 38.0026C42.6902 37.9703 45.8705 38.6499 48.7901 39.9928C43.7288 42.2974 37.9896 42.6267 32.6981 40.9163C35.0659 40.2193 37.3417 39.241 39.4771 38.0026ZM35.4561 45.7632C31.9131 45.0628 30.2931 43.4348 29.5651 42.2431C31.3601 42.6253 34.1641 43.5589 35.4561 45.7632ZM28.0011 7.00083C30.2401 11.3124 35.6921 24.4814 28.0011 38.9531C20.3241 24.5064 25.7681 11.3184 28.0011 7.00083ZM6.32915 22.245C9.71315 22.9875 18.2181 25.52 23.3831 32.8624C24.054 35.1882 24.9561 37.4408 26.0761 39.5865C22.9787 38.9114 20.0069 37.7522 17.2701 36.1514C17.2302 36.1239 17.188 36.0999 17.1441 36.0794C11.9346 32.9862 8.07508 28.0491 6.32915 22.245ZM16.5431 38.0026C18.6723 39.2407 20.9421 40.2189 23.3041 40.9163C18.0128 42.6252 12.2745 42.2959 7.21315 39.9928C10.1371 38.645 13.3241 37.9652 16.5431 38.0026ZM38.7201 36.1424C35.9913 37.7403 33.027 38.8959 29.9371 39.5665C31.053 37.4271 31.9518 35.1811 32.6201 32.8624C37.7781 25.53 46.2661 22.9945 49.6601 22.247C48.9888 24.4387 48.0079 26.5229 46.7471 28.4368C44.4329 31.4709 42.0548 34.155 38.7201 36.1424Z" fill="#1c1c24"/>
</svg>
