<svg width="48" height="48" viewBox="0 0 48 48" fill="none" xmlns="http://www.w3.org/2000/svg">
<path fill-rule="evenodd" clip-rule="evenodd" d="M48 0H0V48H48V0ZM13.3155 38.6668C9.51335 38.6619 5.7772 37.6726 2.47038 35.795C2.32773 35.7154 2.20893 35.5991 2.12625 35.4582C2.04358 35.3173 2.00004 35.1568 2.00013 34.9934C2.00004 34.8299 2.04358 34.6695 2.12625 34.5285C2.20893 34.3876 2.32773 34.2713 2.47038 34.1917C4.64682 32.9646 7.01127 32.1154 9.46327 31.6764C9.96027 31.5874 10.4609 31.5152 10.9642 31.4602C10.5596 31.1541 10.1657 30.8361 9.78291 30.5069C5.91614 27.1807 3.18862 22.706 2.01205 17.7148C1.98903 17.5741 1.99909 17.43 2.04144 17.2939C2.08378 17.1578 2.15725 17.0334 2.25601 16.9307C2.35477 16.8279 2.4761 16.7497 2.61038 16.702C2.74465 16.6544 2.88817 16.6387 3.02955 16.6563C3.43072 16.7053 11.3051 17.7539 17.6614 23.382C18.0877 23.7595 18.5072 24.1576 18.9172 24.5774C18.8349 24.0021 18.7674 23.4261 18.7144 22.8497C18.0613 15.7385 19.6329 8.58344 23.2347 2.38525C23.3234 2.26573 23.4388 2.16863 23.5717 2.10174C23.7046 2.03484 23.8514 2 24.0001 2C24.1489 2 24.2956 2.03484 24.4285 2.10174C24.5614 2.16863 24.6769 2.26573 24.7655 2.38525C28.3679 8.58372 29.9401 15.7392 29.2875 22.8509C29.2346 23.4272 29.1671 24.0032 29.0849 24.5783C29.4948 24.1586 29.9143 23.7606 30.3406 23.3832C36.6979 17.7548 44.5749 16.7053 44.9735 16.6563C45.1148 16.6387 45.2584 16.6544 45.3926 16.702C45.5269 16.7497 45.6482 16.8279 45.747 16.9307C45.8458 17.0334 45.9192 17.1578 45.9616 17.2939C46.0039 17.43 46.014 17.5741 45.991 17.7148C45.4034 20.4659 44.2924 23.0782 42.7185 25.4093C42.5848 25.6128 42.3757 25.7548 42.1374 25.8041C41.899 25.8534 41.6509 25.8059 41.4475 25.6721C41.2441 25.5383 41.1022 25.3292 41.053 25.0907C41.0037 24.8522 41.0512 24.6039 41.1849 24.4004C41.9818 23.1908 42.5764 21.9471 43.0993 20.6185C43.18 20.4162 43.2579 20.2125 43.3328 20.0075C43.3955 19.839 43.4745 19.6605 43.5546 19.4796C43.6669 19.226 43.7812 18.9678 43.8551 18.7264C43.4951 18.8057 43.0725 18.907 42.5993 19.0345C38.984 20.0085 32.4161 22.5137 28.2351 28.4572C27.7543 30.1255 27.1433 31.7527 26.4081 33.3238C26.2066 33.7544 25.9958 34.1808 25.7757 34.6026C26.2475 34.5002 26.716 34.3855 27.1809 34.2587C29.5072 33.6238 31.742 32.6846 33.8268 31.4639C34.8365 30.8644 35.7908 30.1894 36.6832 29.4472C37.5688 28.7133 38.3985 27.9119 39.1646 27.0493C39.327 26.8735 39.5518 26.7683 39.7908 26.7561C40.0298 26.7439 40.264 26.8257 40.4436 26.984C40.6231 27.1424 40.7336 27.3646 40.7516 27.6034C40.7695 27.8422 40.6934 28.0785 40.5396 28.2619C39.8273 29.0621 39.0624 29.8128 38.25 30.5092C37.8659 30.8386 37.4711 31.1557 37.0663 31.4602C37.5698 31.5162 38.0704 31.5894 38.5675 31.6793C41.0096 32.1212 43.3643 32.9693 45.5326 34.1917C45.6755 34.2712 45.7945 34.3874 45.8773 34.5283C45.9602 34.6693 46.0039 34.8298 46.0039 34.9934C46.0039 35.1569 45.9602 35.3174 45.8773 35.4584C45.7945 35.5993 45.6755 35.7155 45.5326 35.795C42.225 37.6744 38.4876 38.665 34.6839 38.6705C34.2101 38.6693 33.7366 38.6531 33.2641 38.6221C32.7775 38.5901 32.292 38.5423 31.8083 38.4788C32.1151 38.8478 32.3785 39.2487 32.5945 39.6735C32.8422 40.1605 33.0276 40.679 33.1448 41.2167C33.1743 41.3506 33.1733 41.4895 33.1421 41.623C33.1108 41.7566 33.0501 41.8814 32.9642 41.9883C32.8784 42.0952 32.7697 42.1815 32.6461 42.2409C32.5225 42.3002 32.3872 42.331 32.2501 42.3311C32.2195 42.3315 32.1889 42.3299 32.1585 42.3265C29.3126 42.0471 27.36 41.2296 26.0168 40.2724C25.5922 39.9699 25.2286 39.6534 24.9168 39.3355V45.0828C24.9168 45.326 24.8202 45.5593 24.6483 45.7314C24.4764 45.9034 24.2432 46 24.0001 46C23.757 46 23.5239 45.9034 23.352 45.7314C23.18 45.5593 23.0835 45.326 23.0835 45.0828V39.3355C22.772 39.6537 22.4084 39.9706 21.9835 40.2735C20.6412 41.2305 18.6881 42.0479 15.8418 42.3265C15.8114 42.33 15.7808 42.3315 15.7501 42.3311C15.613 42.3312 15.4776 42.3004 15.3539 42.2412C15.2302 42.1819 15.1214 42.0956 15.0354 41.9887C14.9495 41.8817 14.8886 41.7569 14.8573 41.6233C14.826 41.4897 14.8251 41.3507 14.8546 41.2167C14.9719 40.6778 15.1575 40.1582 15.4056 39.6701C15.6215 39.2453 15.8846 38.8443 16.1911 38.4751C15.7075 38.5389 15.2221 38.5868 14.7357 38.6187C14.263 38.6498 13.7894 38.6659 13.3155 38.6668ZM6.37373 35.5793C5.89196 35.4026 5.41549 35.2073 4.94538 34.9934C5.41393 34.7774 5.88985 34.5802 6.372 34.4019C8.64798 33.5602 11.0629 33.1408 13.4979 33.169C14.8823 33.974 16.3315 34.6592 17.8298 35.2177C18.4438 35.4465 19.0661 35.6541 19.6955 35.84C19.0553 36.0467 18.408 36.2209 17.7559 36.3627C13.968 37.1864 10.0192 36.9164 6.37373 35.5793ZM30.2481 36.3636C29.5954 36.2216 28.9474 36.0471 28.3066 35.84C28.9368 35.6544 29.5599 35.4472 30.1748 35.2187C31.6777 34.6601 33.1316 33.9746 34.5207 33.169C36.9499 33.1447 39.3588 33.5642 41.6299 34.4026C42.1124 34.5807 42.5887 34.7777 43.0576 34.9934C42.5873 35.2075 42.1106 35.4031 41.6286 35.5799C37.9839 36.9174 34.0354 37.1876 30.2481 36.3636ZM23.9961 36.8251L24.0002 36.8184L24.0029 36.8228L23.9983 36.8274L23.9961 36.8251ZM27.394 37.6345C28.1069 37.9122 28.8348 38.2823 29.4745 38.7745C30.0098 39.1862 30.4833 39.6833 30.8348 40.283C30.1166 40.141 29.4845 39.9574 28.9285 39.7458C28.0616 39.4158 27.3793 39.0176 26.8431 38.6024C26.1681 38.0798 25.7244 37.5303 25.4347 37.0562C26.0081 37.1783 26.6938 37.3618 27.394 37.6345ZM20.6045 37.6361C21.3048 37.363 21.9907 37.1792 22.5646 37.0571C22.2743 37.5319 21.8303 38.0815 21.1555 38.6039C20.6198 39.0187 19.9385 39.4164 19.0731 39.7458C18.5167 39.9576 17.8843 40.1411 17.1655 40.283C17.5174 39.6834 17.9915 39.1863 18.5273 38.7744C19.1661 38.2834 19.8927 37.9136 20.6045 37.6361ZM23.3944 5.99743C23.6129 5.52061 23.8187 5.10341 24.001 4.75076C24.184 5.10313 24.3904 5.52004 24.6096 5.99658C26.7738 10.7018 30.1844 21.2205 24.6137 32.8285C24.4204 33.2312 24.2164 33.6352 24.001 34.0404C23.7858 33.6352 23.5817 33.2312 23.3885 32.8284C17.8291 21.2386 21.2354 10.7083 23.3944 5.99743ZM4.13505 18.7246C4.49348 18.8033 4.91458 18.9038 5.38639 19.0305C8.99785 20.0005 15.5804 22.5044 19.7679 28.4572C20.25 30.1287 20.8625 31.759 21.5993 33.3331C21.8023 33.7668 22.0147 34.1962 22.2365 34.621C21.7527 34.5155 21.2819 34.393 20.8208 34.2562C18.8333 33.6665 17.0276 32.8124 15.1549 31.9267C14.7894 31.7538 14.4213 31.5797 14.0488 31.4061C9.64435 28.7909 6.29262 24.738 4.54277 19.9497C4.39539 19.5464 4.25938 19.1379 4.13505 18.7246Z" fill="#1c1c24"/>
</svg>
