
<svg fill="#03d5ff" xmlns="http://www.w3.org/2000/svg" data-name="Layer 1" viewBox="0 0 128 60" x="0px" y="0px"><path d="M.01,36a1,1,0,0,0,.513.874,24.035,24.035,0,0,0,11.831,3.131,24.4,24.4,0,0,0,3.137-.209,7.015,7.015,0,0,0-1.458,2.989A1,1,0,0,0,15.01,44a.788.788,0,0,0,.1-.005c4.088-.4,6.487-1.818,7.9-3.261V47a1,1,0,0,0,2,0V40.734c1.416,1.443,3.814,2.86,7.9,3.261a.815.815,0,0,0,.1.005,1,1,0,0,0,.976-1.215A7,7,0,0,0,32.528,39.8a24.593,24.593,0,0,0,3.137.209A24.038,24.038,0,0,0,47.5,36.874a1,1,0,0,0,0-1.748,24.283,24.283,0,0,0-9.236-2.978,25.975,25.975,0,0,0,3.789-3.487,1,1,0,0,0-1.5-1.322,24.7,24.7,0,0,1-5.823,4.813,29.967,29.967,0,0,1-8.783,3.422,36.1,36.1,0,0,0,2.683-6.7c5.158-7.328,13.646-9.862,17.04-10.609a24.036,24.036,0,0,1-2.913,6.186,1,1,0,0,0,1.673,1.1A23.912,23.912,0,0,0,48,17.162a1,1,0,0,0-1.11-1.154c-.464.057-10.217,1.356-17.333,8.637A37.556,37.556,0,0,0,24.845.449a1.04,1.04,0,0,0-1.67,0,37.551,37.551,0,0,0-4.71,24.195C11.35,17.363,1.6,16.065,1.133,16.008a1,1,0,0,0-1.11,1.154A26.378,26.378,0,0,0,9.789,32.148,24.238,24.238,0,0,0,.523,35.126,1,1,0,0,0,.01,36Zm16.544,5.767c1.292-2.2,4.094-3.135,5.89-3.517C21.714,39.443,20.094,41.069,16.554,41.767Zm18.933-7.756A21.777,21.777,0,0,1,44.8,36a22.3,22.3,0,0,1-16.092.923A30.922,30.922,0,0,0,35.487,34.011Zm-4.021,7.756c-3.543-.7-5.163-2.327-5.891-3.518C27.37,38.631,30.174,39.564,31.466,41.767ZM24.011,3.028c2.239,4.309,7.691,17.47,0,31.933C16.334,20.523,21.778,7.343,24.011,3.028ZM2.339,18.263c3.384.742,11.889,3.273,17.054,10.611a36.2,36.2,0,0,0,2.693,6.72,30.177,30.177,0,0,1-8.806-3.433.872.872,0,0,0-.126-.072A24.181,24.181,0,0,1,2.339,18.263ZM12.553,34.011a30.807,30.807,0,0,0,6.761,2.912A22.313,22.313,0,0,1,3.223,36,21.7,21.7,0,0,1,12.553,34.011Z"/></svg>